<svg xmlns="http://www.w3.org/2000/svg" xmlns:xlink="http://www.w3.org/1999/xlink" version="1.1" x="0px" y="0px" viewBox="0 0 100 125" style="enable-background:new 0 0 100 100;" xml:space="preserve"><g><path d="M80.682,5.898L85,4.371L83.008,0L58.166,8.788c-2.164-2.913-5.967-4.542-9.901-3.882   c-5.227,0.877-8.783,5.474-8.203,10.428L15.19,24.133l1.994,4.371L0,57.143C0,67.662,8.955,76.19,20,76.19s20-8.528,20-19.048   L21.83,26.86l20.003-7.077c1.364,1.836,3.378,3.159,5.667,3.723v57.599C37.636,82.278,30,90.288,30,100h40   c0-9.712-7.636-17.722-17.5-18.895V23.504c4.804-1.177,7.989-5.559,7.438-10.267L78.95,6.511L60,38.095   c0,10.519,8.955,19.047,20,19.047s20-8.528,20-19.047L80.682,5.898z M20,71.429c-6.517,0-12.074-3.981-14.14-9.524h28.28   C32.074,67.447,26.517,71.429,20,71.429z M34.243,57.143H5.758L20,33.408L34.243,57.143z M64.141,95.238H35.859   c2.061-5.543,7.622-9.523,14.141-9.523S62.08,89.695,64.141,95.238z M50.867,18.976c-2.712,0.455-5.313-1.276-5.792-3.864   s1.345-5.061,4.057-5.516c2.712-0.456,5.313,1.276,5.792,3.863S53.58,18.521,50.867,18.976z M80,52.381   c-6.517,0-12.074-3.981-14.14-9.523H94.14C92.074,48.399,86.517,52.381,80,52.381z M65.758,38.095L80,14.36l14.242,23.735H65.758z"/></g><text x="0" y="115" fill="#000000" font-size="5px" font-weight="bold" font-family="'Helvetica Neue', Helvetica, Arial-Unicode, Arial, Sans-serif">Created by b farias</text><text x="0" y="120" fill="#000000" font-size="5px" font-weight="bold" font-family="'Helvetica Neue', Helvetica, Arial-Unicode, Arial, Sans-serif">from the Noun Project</text></svg>